<?xml version="1.0" standalone="no"?>
<!DOCTYPE svg PUBLIC "-//W3C//DTD SVG 20010904//EN"
 "http://www.w3.org/TR/2001/REC-SVG-20010904/DTD/svg10.dtd">
<svg version="1.0" xmlns="http://www.w3.org/2000/svg"
 width="800.000000pt" height="800.000000pt" viewBox="0 0 800.000000 800.000000"
 preserveAspectRatio="xMidYMid meet">

<g transform="translate(0.000000,800.000000) scale(0.100000,-0.100000)"
fill="#000000" stroke="none">
<path d="M3790 6248 c-402 -88 -632 -176 -868 -331 -243 -159 -411 -329 -577
-582 -94 -144 -128 -206 -186 -342 -60 -141 -91 -238 -123 -389 -49 -233 -60
-350 -60 -639 -1 -304 13 -442 66 -650 17 -66 31 -128 32 -137 0 -10 4 -18 9
-18 5 0 7 -7 4 -15 -4 -8 -2 -17 3 -20 5 -3 16 -29 26 -58 23 -71 121 -264
183 -362 28 -43 51 -87 51 -97 0 -27 44 -44 75 -30 35 16 65 15 71 -3 4 -8 14
-15 25 -15 21 0 49 -36 49 -63 0 -13 6 -18 23 -16 12 2 28 0 35 -5 28 -17 21
2 -13 40 -40 44 -40 59 0 59 24 0 34 -9 62 -57 28 -47 32 -62 23 -78 -9 -17
-8 -20 10 -20 11 0 20 -7 20 -16 0 -9 7 -14 19 -12 11 2 28 -8 40 -22 17 -21
22 -23 31 -10 8 13 13 13 39 -1 20 -12 32 -14 39 -7 8 8 29 -9 71 -53 34 -35
61 -67 61 -70 0 -3 11 -11 25 -17 14 -6 25 -18 25 -25 0 -8 9 -22 20 -32 12
-11 20 -31 20 -52 0 -31 2 -33 28 -27 38 9 43 14 35 27 -18 27 -30 77 -21 83
5 3 6 19 3 35 -6 28 -5 29 29 29 25 0 45 -9 69 -29 18 -16 52 -37 75 -46 41
-17 52 -30 31 -37 -19 -6 8 -56 33 -60 31 -4 57 -87 32 -105 -18 -13 -11 -51
15 -69 13 -10 13 -14 2 -28 -22 -26 0 -39 66 -41 32 -1 94 -13 138 -27 79 -26
83 -26 485 -29 l405 -3 170 38 c192 42 282 73 440 154 291 149 492 337 700
656 66 101 235 410 235 429 0 4 -201 7 -447 7 l-448 0 -29 -55 c-15 -30 -48
-73 -72 -95 -60 -55 -186 -114 -297 -140 -83 -19 -114 -21 -312 -17 -184 3
-233 8 -298 25 -250 68 -503 237 -620 415 -42 63 -90 185 -102 257 -4 25 -11
50 -15 55 -11 15 -21 722 -12 922 7 163 6 172 -11 167 -12 -4 -31 6 -57 30
-22 19 -61 42 -90 50 -48 14 -54 14 -107 -6 l-56 -22 -18 23 c-33 41 -26 137
18 240 114 267 283 452 528 578 123 63 202 93 325 123 83 21 121 24 300 24
239 1 297 -10 493 -94 63 -28 122 -50 130 -50 28 0 102 31 115 47 6 9 12 27
12 40 0 13 6 26 13 29 21 8 126 -61 196 -129 48 -47 58 -53 41 -27 -42 61
-182 195 -263 249 -161 108 -371 196 -567 238 -132 28 -507 25 -646 -5 -288
-62 -542 -192 -743 -378 -152 -142 -293 -347 -341 -499 -7 -22 -20 -53 -29
-70 -8 -16 -16 -39 -16 -50 0 -17 -43 -50 -53 -40 -2 2 3 18 12 37 8 18 27 62
41 98 85 207 203 379 362 530 182 172 353 276 575 350 194 64 318 83 548 84
329 0 507 -48 790 -217 117 -69 183 -121 266 -209 118 -124 181 -234 226 -393
12 -44 26 -86 31 -92 7 -10 72 -12 266 -10 297 2 284 -4 233 108 -114 253
-367 560 -593 721 -168 121 -400 223 -604 268 -173 37 -282 50 -565 65 -151 8
-295 16 -320 19 -25 2 -65 -1 -90 -6z m300 -418 c18 -11 17 -12 -110 -41 -330
-75 -605 -236 -817 -476 -85 -96 -118 -144 -173 -250 -25 -49 -47 -80 -53 -76
-6 4 -8 0 -4 -11 4 -10 3 -15 -3 -11 -6 3 -10 15 -10 25 0 23 -16 35 -26 19
-4 -8 -3 -9 4 -5 8 5 10 2 6 -8 -3 -9 -10 -13 -16 -10 -5 3 -7 13 -3 22 3 8 1
19 -6 22 -24 15 81 190 198 332 108 130 286 269 453 353 100 50 250 103 321
113 86 13 221 14 239 2z m-1342 -962 c-3 -7 -17 -14 -32 -16 -25 -3 -27 -2
-15 12 17 18 52 21 47 4z m18 -1625 c13 -16 38 -53 56 -83 46 -79 178 -265
235 -331 50 -60 160 -163 228 -216 162 -125 445 -246 664 -284 137 -24 408
-28 566 -9 272 33 527 140 725 305 117 98 179 169 186 216 7 42 19 50 29 19
11 -36 -46 -121 -155 -231 -227 -230 -432 -338 -743 -395 -131 -25 -486 -25
-615 -1 -187 35 -427 129 -595 233 -166 104 -337 262 -442 409 -115 161 -215
395 -169 395 3 0 16 -12 30 -27z m2800 -522 c-136 -270 -311 -458 -541 -580
-33 -18 -51 -26 -41 -19 108 74 232 174 295 236 98 98 161 184 253 344 40 70
74 123 76 118 2 -4 -17 -49 -42 -99z"/>
<path d="M5390 5205 c0 -5 5 -17 10 -25 5 -8 10 -10 10 -5 0 6 -5 17 -10 25
-5 8 -10 11 -10 5z"/>
<path d="M1962 3610 c0 -14 2 -19 5 -12 2 6 2 18 0 25 -3 6 -5 1 -5 -13z"/>
<path d="M1981 3504 c0 -11 3 -14 6 -6 3 7 2 16 -1 19 -3 4 -6 -2 -5 -13z"/>
<path d="M2001 3404 c0 -11 3 -14 6 -6 3 7 2 16 -1 19 -3 4 -6 -2 -5 -13z"/>
<path d="M6100 3000 c-79 -155 -136 -261 -200 -367 -78 -131 -69 -133 18 -5
112 165 230 393 219 425 -2 7 -19 -17 -37 -53z"/>
<path d="M3227 2173 c-18 -5 -17 -6 2 -20 24 -16 85 -9 79 9 -4 12 -52 18 -81
11z"/>
</g>
</svg>
